<svg width="20" height="20" viewBox="0 0 20 20" fill="currentColor" xmlns="http://www.w3.org/2000/svg">
<path d="M17.6471 0H8.97059C7.64706 0 6.61765 0.960265 6.61765 2.11921V4.37086H2.35294C1.02941 4.37086 0 5.33113 0 6.49007V17.8808C0 19.0728 1.06618 20 2.35294 20H17.6471C18.9706 20 20 19.0397 20 17.8808V2.11921C20 0.927152 18.9706 0 17.6471 0ZM1.65441 17.8808V14.404H4.33824C4.48529 14.404 4.55882 14.5033 4.55882 14.6026V18.5099H2.35294C1.94853 18.543 1.65441 18.245 1.65441 17.8808ZM6.21324 18.543V14.6358C6.21324 13.7086 5.36765 12.947 4.33824 12.947H1.65441V6.52318C1.65441 6.15894 1.98529 5.89404 2.35294 5.89404H7.57353C7.97794 5.89404 8.27206 6.19205 8.27206 6.52318V18.543H6.21324ZM18.3456 17.8808C18.3456 18.245 18.0147 18.5099 17.6471 18.5099H9.96323V6.52318C9.96323 5.56291 9.26471 4.7351 8.27206 4.4702V2.11921C8.27206 1.75497 8.60294 1.49007 8.97059 1.49007H17.6471C18.0515 1.49007 18.3456 1.78808 18.3456 2.11921V17.8808Z"/>
</svg>
