<svg width="20" height="20" viewBox="0 0 20 20" fill="currentColor" xmlns="http://www.w3.org/2000/svg">
<path d="M18.2838 0H11.0231C10.6271 0 10.264 0.176991 9.967 0.442478C9.66997 0.176991 9.30693 0 8.91089 0H1.65017C0.726073 0 0 1.0177 0 2.21239V16.6372C0 17.8761 0.759076 18.8496 1.65017 18.8496H9.24092V18.9823C9.24092 19.5133 9.57096 20 10 20C10.396 20 10.7591 19.5575 10.7591 18.9823V18.8496H18.3498C19.2739 18.8496 20 17.8319 20 16.6372V2.21239C19.967 0.973451 19.2079 0 18.2838 0ZM1.65017 16.9027C1.55116 16.9027 1.48515 16.8142 1.48515 16.6814V2.21239C1.48515 2.07965 1.55116 1.99115 1.65017 1.99115H8.94389C9.10891 1.99115 9.24092 2.16814 9.24092 2.38938V16.9027H1.65017ZM18.4818 16.6372C18.4818 16.7699 18.4158 16.8584 18.3168 16.8584H10.7261V2.38938C10.7261 2.16814 10.8581 1.99115 11.0231 1.99115H18.3168C18.4158 1.99115 18.4818 2.07965 18.4818 2.21239V16.6372Z"/>
<path d="M4.12541 6.32739H6.56765C6.96369 6.32739 7.32673 5.88491 7.32673 5.30969C7.32673 4.73447 6.9967 4.29199 6.56765 4.29199H4.12541C3.72937 4.29199 3.36633 4.73447 3.36633 5.30969C3.36633 5.88491 3.69637 6.32739 4.12541 6.32739Z"/>
<path d="M13.2673 6.32739H15.7096C16.1056 6.32739 16.4686 5.88491 16.4686 5.30969C16.4686 4.73447 16.1386 4.29199 15.7096 4.29199H13.2673C12.8713 4.29199 12.5082 4.73447 12.5082 5.30969C12.5082 5.88491 12.8713 6.32739 13.2673 6.32739Z"/>
<path d="M15.7756 7.9646H13.3334C12.9373 7.9646 12.5743 8.40708 12.5743 8.9823C12.5743 9.55752 12.9043 10 13.3334 10H15.7756C16.1716 10 16.5347 9.55752 16.5347 8.9823C16.5347 8.40708 16.1716 7.9646 15.7756 7.9646Z"/>
<path d="M6.60067 7.9646H4.15843C3.76239 7.9646 3.39935 8.40708 3.39935 8.9823C3.39935 9.55752 3.72939 10 4.15843 10H6.60067C6.99671 10 7.35975 9.55752 7.35975 8.9823C7.35975 8.40708 7.02972 7.9646 6.60067 7.9646Z"/>
<path d="M6.60067 11.8585H4.15843C3.76239 11.8585 3.39935 12.3009 3.39935 12.8762C3.39935 13.4514 3.72939 13.8939 4.15843 13.8939H6.60067C6.99671 13.8939 7.35975 13.4514 7.35975 12.8762C7.35975 12.3009 7.02972 11.8585 6.60067 11.8585Z"/>
<path d="M15.7756 11.8585H13.3334C12.9373 11.8585 12.5743 12.3009 12.5743 12.8762C12.5743 13.4514 12.9043 13.8939 13.3334 13.8939H15.7756C16.1716 13.8939 16.5347 13.4514 16.5347 12.8762C16.5347 12.3009 16.1716 11.8585 15.7756 11.8585Z"/>
</svg>
