<svg width="20" height="20" viewBox="0 0 20 20" fill="currentColor" xmlns="http://www.w3.org/2000/svg">
<path d="M17.6159 0H2.38411C1.0596 0 0 1.09635 0 2.39203V17.608C0 18.9369 1.09272 20 2.38411 20H17.6159C18.9404 20 20 18.9037 20 17.608V2.42525C20 1.09635 18.9404 0 17.6159 0ZM18.543 2.42525V9.30233H10.7285V1.49502H17.6159C18.1126 1.49502 18.543 1.92691 18.543 2.42525ZM2.38411 1.49502H9.27152V9.2691H1.45695V2.42525C1.45695 1.92691 1.88742 1.49502 2.38411 1.49502ZM1.45695 17.6412V10.7641H9.23841V18.5382H2.38411C1.88742 18.5714 1.45695 18.1395 1.45695 17.6412ZM17.6159 18.5714H10.7285V10.7641H18.5099V17.6412C18.543 18.1395 18.1126 18.5714 17.6159 18.5714Z"/>
<path d="M3.70861 6.57808H4.63576V7.50831C4.63576 7.90698 4.96689 8.23921 5.36424 8.23921C5.76159 8.23921 6.09272 7.90698 6.09272 7.50831V6.57808H7.01987C7.41722 6.57808 7.74834 6.24585 7.74834 5.84718C7.74834 5.44851 7.41722 5.11628 7.01987 5.11628H6.09272V4.18605C6.09272 3.78738 5.76159 3.45515 5.36424 3.45515C4.96689 3.45515 4.63576 3.78738 4.63576 4.18605V5.11628H3.70861C3.31126 5.11628 2.98013 5.44851 2.98013 5.84718C2.98013 6.24585 3.27815 6.57808 3.70861 6.57808Z"/>
<path d="M13.5762 5.38206L12.8477 6.11295C12.5497 6.41196 12.5497 6.87707 12.8477 7.17608C12.9801 7.30897 13.1788 7.40864 13.3775 7.40864C13.5762 7.40864 13.7417 7.34219 13.9073 7.17608L14.6358 6.44518L15.3642 7.17608C15.4967 7.30897 15.6954 7.40864 15.894 7.40864C16.0927 7.40864 16.2914 7.34219 16.4238 7.17608C16.7219 6.87707 16.7219 6.41196 16.4238 6.11295L15.6954 5.38206L16.4238 4.65116C16.7219 4.35216 16.7219 3.88704 16.4238 3.58804C16.1258 3.28903 15.6623 3.28903 15.3642 3.58804L14.6358 4.35216L13.9073 3.62126C13.6093 3.32226 13.1457 3.32226 12.8477 3.62126C12.5497 3.92026 12.5497 4.38538 12.8477 4.68438L13.5762 5.38206Z"/>
<path d="M6.6225 13.4884H4.10595C3.7086 13.4884 3.37747 13.8206 3.37747 14.2193C3.37747 14.6179 3.7086 14.9502 4.10595 14.9502H6.6225C7.01986 14.9502 7.35098 14.6179 7.35098 14.2193C7.35098 13.8206 7.05297 13.4884 6.6225 13.4884Z"/>
<path d="M15.3642 12.8904L12.8477 15.4153C12.5497 15.7143 12.5497 16.1794 12.8477 16.4784C12.9801 16.6113 13.1788 16.711 13.3775 16.711C13.5762 16.711 13.7417 16.6445 13.9073 16.4784L16.4238 13.9535C16.7219 13.6545 16.7219 13.1894 16.4238 12.8904C16.1258 12.5914 15.6623 12.5914 15.3642 12.8904Z"/>
</svg>
