<svg width="20" height="20" viewBox="0 0 20 20" fill="currentColor" xmlns="http://www.w3.org/2000/svg">
<path d="M10.1509 0.642899C4.89315 0.642899 0.642853 4.89319 0.642853 10.151C0.642853 15.4087 4.89315 19.6905 10.1509 19.6905C15.4087 19.6905 19.6905 15.4087 19.6905 10.151C19.6905 4.89319 15.4087 0.642899 10.1509 0.642899ZM10.1509 18.2738C5.68024 18.2738 2.05962 14.6216 2.05962 10.151C2.05962 5.68029 5.68024 2.05966 10.1509 2.05966C14.6216 2.05966 18.2737 5.71177 18.2737 10.1824C18.2737 14.6216 14.6216 18.2738 10.1509 18.2738Z"/>
<path d="M10.7176 3.88571C9.8046 3.72829 8.86009 3.98016 8.16745 4.57835C7.47481 5.17654 7.06552 6.0266 7.06552 6.97111C7.06552 7.31743 7.12849 7.66375 7.25442 8.01007C7.38036 8.38788 7.78965 8.57678 8.16745 8.45084C8.54525 8.32491 8.73416 7.91562 8.60822 7.53782C8.54525 7.34891 8.51377 7.16001 8.51377 6.97111C8.51377 6.46737 8.73416 5.99512 9.11196 5.68028C9.48976 5.36544 9.9935 5.20802 10.5287 5.30248C11.1899 5.42841 11.7566 5.99512 11.8825 6.65627C12.0085 7.44337 11.5992 8.23046 10.875 8.54529C10.0565 8.89161 9.52125 9.71019 9.52125 10.6547V12.6067C9.52125 12.9845 9.83608 13.3308 10.2454 13.3308C10.6232 13.3308 10.9695 13.016 10.9695 12.6067V10.6547C10.9695 10.3084 11.1584 9.99354 11.4418 9.86761C12.7955 9.3009 13.5826 7.88414 13.3308 6.43589C12.9845 5.14506 11.977 4.1061 10.7176 3.88571Z"/>
<path d="M10.1824 14.4957H10.088C9.71015 14.4957 9.36383 14.8105 9.36383 15.2198C9.36383 15.6291 9.67867 15.944 10.088 15.944H10.1824C10.5602 15.944 10.875 15.6291 10.875 15.2198C10.875 14.8105 10.5917 14.4957 10.1824 14.4957Z"/>
</svg>
