<svg width="22" height="20" viewBox="0 0 22 20" fill="currentColor" xmlns="http://www.w3.org/2000/svg">
<path d="M22 3.3456C22 3.08125 21.8907 2.81689 21.6722 2.61862C21.2351 2.22209 20.798 1.82556 20.3974 1.42903C19.9967 1.06554 19.6325 0.702047 19.2318 0.371603C19.0497 0.173336 18.8311 0.0411586 18.5397 0.00811417C18.2119 -0.0249303 17.9205 0.0411586 17.6656 0.239425L15.1887 2.48645H2.2947C1.05629 2.48645 0 3.41169 0 4.56825V17.9182C0 19.0417 1.01987 20 2.2947 20H17.0464C18.2848 20 19.3411 19.0748 19.3411 17.9182V6.18742L21.7086 4.03954C21.8907 3.84127 22 3.60996 22 3.3456ZM11.2914 11.3093C11.255 11.3424 11.255 11.3424 11.2185 11.3424L8.59603 12.1354L9.4702 9.75622C9.4702 9.72318 9.50662 9.72318 9.50662 9.69014L16.0629 3.74214L17.8841 5.36131L11.2914 11.3093ZM17.6656 17.9182C17.6656 18.2486 17.3742 18.513 17.0099 18.513H2.2947C1.93046 18.513 1.63907 18.2486 1.63907 17.9182V4.5352C1.63907 4.20476 1.93046 3.9404 2.2947 3.9404H13.5132L8.34106 8.66576C8.15894 8.83098 7.97682 9.06229 7.90397 9.32665L6.55629 13.0276C6.44702 13.292 6.51987 13.5233 6.66556 13.7546C6.77483 13.8868 6.99338 14.085 7.39404 14.085H7.53974L11.7285 12.8294C11.9834 12.7633 12.2384 12.598 12.4205 12.4328L17.6656 7.67442V17.9182ZM19.0132 4.33694L17.1921 2.71776L18.3212 1.69338C18.6126 1.95774 19.8146 3.0482 20.106 3.3456L19.0132 4.33694Z"/>
</svg>
